<?xml version="1.0" encoding="UTF-8"?>
<svg id="Calque_1" data-name="Calque 1" xmlns="http://www.w3.org/2000/svg" viewBox="0 0 85.62 85.72">
  <defs>
    <style>
      .cls-1 {
        fill: #000;
        stroke-width: 0px;
      }
    </style>
  </defs>
  <path class="cls-1" d="M5.33,51.63c-1.44.01-2.86.57-3.81,1.65-.48.54-.86,1.21-.88,2.01-.04,1.85.32,8.97.32,10.61s.57,10.25,1.37,12.62c.87,2.6,5.3,7.71,13.18,7.15s17.28-4.66,19.53-16.39c.23-2.58.7-12.52-10.72-27.76-.7-.94-1.32-1.93-1.89-2.95-2.41-4.33-8.48-15.56-6.51-23.85C18.24,4.92,25.88,1.54,31.98,2.51c1.93.72,8.52,2.17,1.93,15.43-5.99,12.06-8.8,16.68-5.02,22.92.97,1.61,2.45,2.92,4.24,3.49,3.43,1.09,10.57-1.76,18.93-7.84q1.08-.78,1.81-1.29c1.68-1.18,8.23-5.09,12.93-2.75,1.07.53,1.94,1.38,2.62,2.35,2.19,3.15,5.67,10.05-.88,27.88-1.64,3.58-5.78,13.62-14.74,14.57-1.65.18-3.36-.2-4.63-1.26-1.41-1.17-2.59-3.33-1.75-7.55.34-1.69,1.16-3.25,2.36-4.49,1.98-2.06,5.47-4.4,8.45-6.8,1.28-1.02,2.22-1.97,2.96-2.89,1.77-2.2,3.14-5.5-.65-8.64-1.87-1.55-4.26-2.33-6.68-2.32-3.78.02-9.28,1.33-12.72,8.38-2.05,4.41-4.15,14.61,4.03,22.94.99,1.01,1.98,1.84,3.42,2.72,2.93,1.79,9.86,3.32,19.14,1.2,3.39-.77,6.54-2.44,9-4.89,4.61-4.58,9.74-12.13,8.77-23.05-.3-3.36-1.33-6.64-3.08-9.52-2.97-4.87-7.43-8.94-14.22-10.36-8.73-1.82-13.82,1.3-17.19,2.94-7.42,3.62-11.06,2.31-8.99-16.01S23.14-.12,21.54.04C19.97.31,6.12.73,1.31,14.44c-2.1,5.98-1.59,12.53.91,18.36,2.33,5.43,6.27,11.62,12.65,18.57,3.86,4.98,13.1,14.14,8.28,25.63-.85,1.47-2.11,3.32-3.83,4.77-2.12,1.8-4.94,2.58-7.7,2.23-1.83-.23-3.56-1.06-3.72-4.43-.1-2.18.61-4.33,1.89-6.1,2.39-3.31,6.07-7.8,4.82-14.04-.33-1.66-1.07-3.22-2.08-4.58-1.22-1.64-3.11-3.26-7.19-3.22Z"/>
</svg>